# xmcd
#
# Track frame offsets:
#	150
#	12276
#	23328
#	38009
#	53132
#	68972
#
# Disc length: 1016 seconds
#
# Revision: 1
# Processed by: cddbd v1.5.2PL0 Copyright (c) Steve Scherf et al.
# Submitted via: audiograbber 1.83.01
#
DISCID=3e03f606
DTITLE=Claudia Woloszyn - Fluss
DYEAR=1900
DGENRE=Deutsch
TTITLE0=Fluß
TTITLE1=Such mich
TTITLE2=Schnecke
TTITLE3=Wölfe
TTITLE4=Zwischen Bleiben und Gehen
TTITLE5=kienapfelsong
EXTD=
EXTT0=
EXTT1=
EXTT2=
EXTT3=
EXTT4=
EXTT5=
PLAYORDER=
